<svg xmlns="http://www.w3.org/2000/svg" viewBox="0 0 64 64" fill="none">
  <rect width="64" height="64" rx="16" fill="#4F46E5"/>
  <path d="M16 38c2.4 3.6 6.2 5.4 11.4 5.4 4.4 0 7.6-1.7 9.2-4.6 0.8-1.5 1-3.5 0.3-4.9-0.9-2-2.8-3.1-5.8-3.7l-4.2-0.8c-1.8-0.3-2.8-0.9-3.2-1.8-0.3-0.7-0.3-1.7 0.2-2.5 0.8-1.4 2.4-2.2 4.6-2.2 2.5 0 4.4 1 5.9 3l4.6-3.4c-2.2-3.3-5.6-5-10.4-5-4.6 0-7.9 1.8-9.6 4.8-0.9 1.5-1.2 3.2-0.9 4.8 0.6 2.9 2.8 4.8 6.9 5.6l4.6 0.9c1.9 0.3 3 0.9 3.5 1.9 0.4 0.8 0.4 1.8-0.2 2.8-0.9 1.5-2.7 2.3-5.2 2.3-3.1 0-5.5-1.1-7.4-3.5L16 38Z" fill="white"/>
</svg>
